screens;
 
http://baypic.net/img-516478b769b34.html

Format                                   : Windows Media
File size                                : 1.37 GiB
Duration                                 : 21mn 41s
Overall bit rate mode                    : Constant
Overall bit rate                         : 9 052 Kbps
Maximum Overall bit rate                 : 9 199 Kbps
Encoded date                             : UTC 2013-03-14 08:09:46.123

Video
ID                                       : 2
Format                                   : VC-1
Format profile                           : MP@HL
Codec ID                                 : WMV3
Codec ID/Info                            : Windows Media Video 9
Codec ID/Hint                            : WMV3
Description of the codec                 : Windows Media Video 9 - Professional
Duration                                 : 21mn 41s
Bit rate mode                            : Constant
Bit rate                                 : 9 000 Kbps
Width                                    : 1 920 pixels
Height                                   : 1 080 pixels
Display aspect ratio                     : 16:9
Frame rate                               : 23.976 fps
Nominal frame rate                       : 29.970 fps
Bit depth                                : 8 bits
Scan type                                : Progressive
Compression mode                         : Lossy
Bits/(Pixel*Frame)                       : 0.181
Stream size                              : 1.36 GiB (99%)

Audio
ID                                       : 1
Format                                   : WMA
Format version                           : Version 2
Codec ID                                 : 161
Codec ID/Info                            : Windows Media Audio
Description of the codec                 : Windows Media Audio 9.2 - 128 kbps, 44 kHz, stereo 2-pass CBR
Duration                                 : 21mn 41s
Bit rate mode                            : Constant
Bit rate                                 : 128 Kbps
Channel(s)                               : 2 channels
Sampling rate                            : 44.1 KHz
Bit depth                                : 16 bits
Stream size                              : 19.9 MiB (1%)